<?xml version="1.0" encoding="UTF-8"?>
<svg id="Capa_2" xmlns="http://www.w3.org/2000/svg" version="1.1" viewBox="0 0 554.51 569.92">
  <!-- Generator: Adobe Illustrator 29.8.1, SVG Export Plug-In . SVG Version: 2.1.1 Build 2)  -->
  <defs>
    <style>
      .st0 {
        fill: #b77b62;
      }

      .st1 {
        fill: #fff;
      }
    </style>
  </defs>
  <rect class="st1" x="1.12" y="5.35" width="550.63" height="562.3"/>
  <g id="Capa_1-2">
    <g>
      <path class="st0" d="M397.25,52.48c.16-4.35.09-9.28-3.1-12.25-13.52-12.58-38.18,14.04-46.24,22.86-13.83,15.12-23.52,32.81-31.17,51.52-10.84,26.52-18.22,54.26-26.67,81.59-4.98,16.08-10.56,34.04-6.73,50.97,2.42,10.71,9.62,19.17,19.88,23.1,10.72,4.11,28.06,5.06,35.08,15.32.53.77.99,2.07,1.39,3.83v114.68h0v131.96s55.89,0,55.89,0v-258.92s-.04,0-.04,0c-.2-75.1-1.03-149.16,1.72-224.67Z"/>
      <path class="st0" d="M233.02,86.07v127.31c0,3.12-2.56,5.64-5.69,5.58-3.07-.06-5.47-2.69-5.47-5.77v-127.12h-9.81v127.31c0,3.12-2.55,5.63-5.68,5.58-3.07-.06-5.48-2.69-5.48-5.76v-127.12h-9.81v127.12c0,3.07-2.4,5.71-5.47,5.77-3.13.06-5.69-2.45-5.69-5.58v-127.31h-10.24l-10.48,126.09c0,24.62,1.96,43.36,7.67,56.75,7.42,17.4,11.55,36.03,11.55,54.95v213.23h55.88v-213.24c0-18.92,4.14-37.55,11.55-54.96,5.71-13.38,7.67-32.13,7.67-56.74l-10.29-126.09h-10.24Z"/>
    </g>
  </g>
</svg>